<svg id="outline" height="512" viewBox="0 0 512 512" width="512" xmlns="http://www.w3.org/2000/svg"><path d="m83.3291 484.13477a39.51215 39.51215 0 0 0 28.38526 11.86523h211.03076a39.73644 39.73644 0 0 0 28.28418-11.71582l77.25488-77.25488a39.73644 39.73644 0 0 0 11.71582-28.28418v-186.74512a7.99977 7.99977 0 0 0 -8-8h-8v-24h-16v24h-16v-24a7.99977 7.99977 0 0 0 -8-8h-32a7.99977 7.99977 0 0 0 -8 8v24h-16v-48h-16v48h-16v-48h-16v48h-16v-48a7.99977 7.99977 0 0 0 -8-8h-32a7.99977 7.99977 0 0 0 -8 8v48h-16v-16h-16v16h-16v-16h-16v16h-16v-56h-16v56h-16v-24h-16v24h-8a8.00039 8.00039 0 0 0 -8 8l.00439 263.85205a39.20538 39.20538 0 0 0 11.32471 28.28272zm276.6709-316.13477h16v16h-16zm-128-24h16v40h-16zm192 56v178.74512a23.84457 23.84457 0 0 1 -7.0293 16.9707l-72.9707 72.9707v-44.68652a24.02687 24.02687 0 0 1 24-24h24v-16h-24a40.04521 40.04521 0 0 0 -40 40v55.419a24.18915 24.18915 0 0 1 -5.25488.581h-211.03076a23.63014 23.63014 0 0 1 -16.98-7.08643 23.32551 23.32551 0 0 1 -6.731-16.86865c.00049-.04394.001-.0874.001-.13086l-.00436-255.91406z"/><path d="m152 144a7.99977 7.99977 0 0 0 8 8h32a7.99977 7.99977 0 0 0 8-8v-56a7.99977 7.99977 0 0 0 -8-8h-32a7.99977 7.99977 0 0 0 -8 8zm16-48h16v40h-16z"/><path d="m120 16h16v96h-16z"/><path d="m88 16h16v32h-16z"/><path d="m88 64h16v80h-16z"/><path d="m408 16h16v32h-16z"/><path d="m408 64h16v80h-16z"/><path d="m152 16h16v48h-16z"/><path d="m184 16h16v16h-16z"/><path d="m184 48h16v16h-16z"/><path d="m216 72h16v40h-16z"/><path d="m248 16h16v56h-16z"/><path d="m248 88h16v24h-16z"/><path d="m216 16h16v40h-16z"/><path d="m280 112a7.99977 7.99977 0 0 0 8 8h32a7.99977 7.99977 0 0 0 8-8v-56a7.99977 7.99977 0 0 0 -8-8h-32a7.99977 7.99977 0 0 0 -8 8zm16-48h16v40h-16z"/><path d="m280 16h16v16h-16z"/><path d="m312 16h16v16h-16z"/><path d="m344 64h16v72h-16z"/><path d="m376 16h16v80h-16z"/><path d="m376 112h16v24h-16z"/><path d="m344 16h16v32h-16z"/><path d="m168 240h24v16h-24z"/><path d="m208 240h112v16h-112z"/><path d="m336 240h48v16h-48z"/><path d="m128 288h48v16h-48z"/><path d="m192 288h128v16h-128z"/><path d="m128 384h88v16h-88z"/><path d="m232 384h80v16h-80z"/><path d="m128 432h24v16h-24z"/><path d="m280 432h32v16h-32z"/><path d="m168 432h96v16h-96z"/><path d="m336 288h48v16h-48z"/><path d="m128 336h16v16h-16z"/><path d="m160 336h112v16h-112z"/><path d="m288 336h96v16h-96z"/></svg>